<?xml version="1.0" encoding="iso-8859-1"?>
<!-- Generator: Adobe Illustrator 19.0.0, SVG Export Plug-In . SVG Version: 6.00 Build 0)  -->
<svg version="1.1" id="Layer_1" xmlns="http://www.w3.org/2000/svg" xmlns:xlink="http://www.w3.org/1999/xlink" x="0px" y="0px"
	 viewBox="0 0 512 512" style="enable-background:new 0 0 512 512;" xml:space="preserve">
<path style="fill:#C7E9F4;" d="M256,512C114.841,512,0,397.159,0,256S114.841,0,256,0s256,114.841,256,256S397.159,512,256,512z"/>
<path style="fill:#80D0E1;" d="M256,0v512c141.159,0,256-114.841,256-256S397.159,0,256,0z"/>
<path style="fill:#FF5E5B;" d="M389.15,230.877h-72.497l51.264-51.264c4.905-4.905,4.905-12.859,0-17.764l-17.765-17.764
	c-4.905-4.905-12.859-4.905-17.764,0l-51.264,51.264v-72.499c0-6.938-5.624-12.561-12.561-12.561h-25.123
	c-6.938,0-12.561,5.624-12.561,12.561v72.499l-51.264-51.264c-4.905-4.905-12.859-4.905-17.764,0l-17.764,17.764
	c-4.905,4.905-4.905,12.859,0,17.764l51.264,51.264h-72.499c-6.938,0-12.561,5.624-12.561,12.561v25.123
	c0,6.938,5.624,12.561,12.561,12.561h72.499l-51.264,51.264c-4.905,4.905-4.905,12.859,0,17.764l17.764,17.764
	c4.905,4.905,12.859,4.905,17.764,0l51.264-51.264v72.499c0,6.938,5.624,12.561,12.561,12.561h25.123
	c6.938,0,12.561-5.624,12.561-12.561v-72.497l51.264,51.264c4.905,4.905,12.859,4.905,17.764,0l17.765-17.764
	c4.905-4.905,4.905-12.859,0-17.764l-51.264-51.264h72.497c6.938,0,12.561-5.624,12.561-12.561V243.44
	C401.711,236.501,396.087,230.877,389.15,230.877z"/>
<path style="fill:#FF423D;" d="M389.15,230.877h-72.497l51.264-51.264c11.18-11.18-3.483-21.247-17.765-35.53
	c-4.905-4.905-12.859-4.905-17.764,0l-51.264,51.264v-72.497c0-6.938-5.624-12.561-12.561-12.561h-12.387v291.422h12.387
	c6.938,0,12.561-5.624,12.561-12.561v-72.499l51.264,51.264c4.905,4.905,12.859,4.905,17.764,0l17.765-17.764
	c4.905-4.905,4.905-12.859,0-17.764l-51.264-51.264h72.497c15.811,0,12.561-17.487,12.561-37.684
	C401.711,236.501,396.087,230.877,389.15,230.877z"/>
<g>
</g>
<g>
</g>
<g>
</g>
<g>
</g>
<g>
</g>
<g>
</g>
<g>
</g>
<g>
</g>
<g>
</g>
<g>
</g>
<g>
</g>
<g>
</g>
<g>
</g>
<g>
</g>
<g>
</g>
</svg>
